<?xml version="1.0" encoding="utf-8"?>
<!-- Generator: Adobe Illustrator 27.5.0, SVG Export Plug-In . SVG Version: 6.00 Build 0)  -->
<svg version="1.1" id="Capa_2_00000174583160797886262930000000574717726575293078_"
	 xmlns="http://www.w3.org/2000/svg" xmlns:xlink="http://www.w3.org/1999/xlink" x="0px" y="0px" viewBox="0 0 2372 1898"
	 style="enable-background:new 0 0 2372 1898;" xml:space="preserve">
<path style="fill:#FCE5E6;" d="M2118.111,535.988c-24.982-32.004-67.598-41.702-97.478-46.212
	c-55.519-8.388-111.531-4.376-158.996,0.65c-62.823,6.651-129.986,18.687-211.364,37.877
	c-40.029,9.441-97.761,26.114-133.436,36.246l3.377,3.443c-91.031-82.344-211.732-132.497-344.149-132.497
	c-238.761,0-439.437,163.053-496.758,383.881l-0.02,0.075c-0.542,2.09-1.071,4.185-1.587,6.285l-0.02,0.08
	c-2.874,11.698-5.348,23.553-7.404,35.55l-0.002,0.013c-0.182,1.063-0.361,2.127-0.537,3.193l-0.078,0.484
	c-0.149,0.91-0.297,1.821-0.441,2.733l-0.115,0.736c-0.131,0.835-0.261,1.669-0.388,2.506l-0.128,0.859
	c-0.119,0.793-0.238,1.587-0.353,2.381l-0.134,0.935c-0.112,0.784-0.224,1.568-0.333,2.352l-0.134,0.983
	c-0.1,0.732-0.2,1.465-0.297,2.198l-0.157,1.209c-0.092,0.703-0.182,1.407-0.271,2.112l-0.138,1.111
	c-0.088,0.708-0.174,1.418-0.259,2.127l-0.15,1.279c-0.076,0.652-0.151,1.305-0.225,1.958l-0.152,1.368
	c-0.071,0.649-0.142,1.298-0.211,1.948l-0.135,1.292c-0.069,0.668-0.137,1.336-0.204,2.004l-0.133,1.349
	c-0.063,0.643-0.124,1.286-0.184,1.93l-0.129,1.409c-0.055,0.61-0.109,1.221-0.162,1.831l-0.128,1.499
	c-0.052,0.615-0.102,1.23-0.152,1.846l-0.115,1.453c-0.049,0.628-0.096,1.255-0.142,1.883l-0.104,1.437
	c-0.045,0.629-0.088,1.258-0.13,1.888l-0.097,1.457l-0.084,1.326l-0.027,0.45l-0.001,0.023c-0.032,0.517-0.064,1.033-0.093,1.55
	c-0.034,0.575-0.065,1.149-0.097,1.724l-0.031,0.567l-0.053,1.001c-0.034,0.647-0.064,1.295-0.095,1.942l-0.068,1.422l-0.032,0.729
	l-2.71,1.515c-60.287,35.536-148.791,91.318-216.383,141.297c-57.075,42.203-100.149,79.531-135.559,117.471
	c-95.79,102.64-77.33,160.432-44.975,190.841c23.919,22.48,56.921,30.357,83.001,34.707c24.221,4.041,48.478,5.417,71.667,5.417
	c19.771,0,38.77-1.001,56.302-2.201c127.47-8.739,250.062-39.542,353.172-68.524c5.908-1.661,11.821-3.342,17.737-5.041
	c89.279,75.208,204.565,120.526,330.437,120.526c57.571,0,112.928-9.48,164.594-26.964c1.987-0.672,3.969-1.357,5.946-2.053
	c0.988-0.349,1.974-0.699,2.959-1.053c1.971-0.708,3.936-1.427,5.895-2.159c2.939-1.097,5.865-2.219,8.779-3.369
	c1.942-0.766,3.879-1.543,5.809-2.332c0.965-0.394,1.929-0.792,2.891-1.192c1.924-0.8,3.843-1.611,5.756-2.434
	c1.913-0.823,3.819-1.657,5.72-2.502c1.9-0.846,3.795-1.702,5.683-2.57c24.548-11.28,48.053-24.44,70.331-39.297
	c2.571-1.714,5.124-3.451,7.662-5.21c0.846-0.586,1.69-1.175,2.532-1.767c4.21-2.956,8.375-5.975,12.491-9.052
	c1.647-1.232,3.285-2.473,4.917-3.723c5.709-4.377,11.324-8.872,16.84-13.48c2.364-1.975,4.71-3.971,7.038-5.987
	c1.552-1.344,3.096-2.698,4.631-4.06c0.768-0.681,1.533-1.365,2.297-2.05c9.163-8.23,18.028-16.783,26.578-25.644
	c1.425-1.477,2.841-2.963,4.249-4.456c5.629-5.975,11.116-12.085,16.456-18.325c0.668-0.78,1.333-1.563,1.996-2.346
	c3.315-3.92,6.571-7.891,9.77-11.91c0.639-0.804,1.277-1.61,1.911-2.418c5.079-6.462,10.006-13.051,14.775-19.757
	c0.596-0.838,1.19-1.679,1.781-2.521c1.774-2.526,3.525-5.069,5.254-7.628c1.153-1.707,2.296-3.421,3.429-5.141
	c19.04-28.927,35.232-59.895,48.179-92.505l0.057-0.144c0.284-0.716,0.566-1.433,0.847-2.15l0.173-0.443
	c0.277-0.71,0.553-1.421,0.828-2.133l0.067-0.176c1.187-3.083,2.344-6.18,3.472-9.292l0.177-0.488
	c0.241-0.669,0.482-1.339,0.721-2.009l0.201-0.565c0.245-0.691,0.49-1.382,0.733-2.074l0.084-0.242
	c0.8-2.285,1.584-4.578,2.352-6.879l0.135-0.404c0.224-0.673,0.446-1.346,0.668-2.02l0.201-0.615
	c0.216-0.658,0.43-1.318,0.643-1.977l0.216-0.674c0.214-0.666,0.427-1.331,0.638-1.998l0.11-0.35
	c0.693-2.194,1.37-4.395,2.034-6.602l0.243-0.807c0.184-0.614,0.365-1.228,0.547-1.842l0.242-0.823
	c0.179-0.611,0.358-1.224,0.534-1.836l0.26-0.903c0.179-0.625,0.358-1.25,0.535-1.876l0.076-0.268
	c0.628-2.226,1.241-4.459,1.84-6.696l0.251-0.942c0.152-0.575,0.304-1.15,0.454-1.725l0.28-1.075
	c0.146-0.562,0.292-1.125,0.436-1.688l0.25-0.987c0.156-0.615,0.312-1.231,0.466-1.847l0.029-0.117c0.339-1.359,0.672-2.72,1-4.083
	l0.256-1.061c0.128-0.538,0.255-1.077,0.381-1.616l0.29-1.237c0.122-0.523,0.243-1.046,0.362-1.568l0.284-1.247
	c0.123-0.543,0.246-1.086,0.367-1.63l0.242-1.091c0.127-0.577,0.255-1.155,0.38-1.733l0.038-0.178
	c0.289-1.336,0.572-2.674,0.851-4.013l0.256-1.231c0.108-0.526,0.214-1.053,0.321-1.58l0.248-1.234
	c0.11-0.55,0.22-1.101,0.327-1.652l0.243-1.245c0.1-0.518,0.201-1.036,0.299-1.555l0.276-1.464c0.115-0.617,0.232-1.235,0.345-1.853
	c0.137-0.744,0.273-1.488,0.406-2.233l0.243-1.376c0.09-0.511,0.18-1.023,0.269-1.534l0.252-1.466l0.237-1.402l0.247-1.488
	c0.084-0.51,0.166-1.02,0.249-1.531l0.221-1.378c0.091-0.574,0.18-1.15,0.269-1.725c0.101-0.651,0.2-1.302,0.299-1.953
	c0.099-0.655,0.197-1.31,0.294-1.966l0.206-1.421l0.214-1.498l0.2-1.432c0.073-0.533,0.146-1.066,0.218-1.599l0.183-1.363
	c0.072-0.546,0.142-1.093,0.213-1.639l0.165-1.278c0.086-0.68,0.17-1.361,0.253-2.042c0.077-0.629,0.152-1.259,0.228-1.889
	c0.073-0.618,0.147-1.236,0.218-1.855l0.141-1.248c0.065-0.578,0.129-1.156,0.192-1.735l0.149-1.39l0.157-1.495l0.154-1.504
	c0.053-0.526,0.104-1.052,0.155-1.578l0.134-1.38c0.088-0.934,0.175-1.867,0.258-2.802l0.097-1.115
	c0.054-0.622,0.108-1.243,0.16-1.865l0.112-1.383c0.042-0.531,0.085-1.061,0.127-1.592l0.111-1.465l0.03-0.393
	c126.45-71.561,218.417-132.934,298.063-198.896c39.123-32.403,68.878-61.09,93.637-90.284
	c17.619-20.776,39.14-48.817,49.254-81.518C2138.454,585.091,2134.76,557.312,2118.111,535.988z M1746.452,655.572l2.505,0.125
	l1.16-0.018l0.157,0.027c0.771,0.14,1.485,0.259,2.047,0.314c6.364,0.626,11.998,1.478,17.226,2.604
	c1.133,0.244,2.253,0.546,3.373,0.847c0.544,0.144,1.089,0.29,1.634,0.43l0.226,0.066l-0.003,0.019l0.341,0.071l0.928,0.219
	l0.483,0.139c1.234,0.424,2.461,0.876,3.671,1.366c3.998,1.619,7.321,3.399,10.16,5.435c1.105,0.795,2.266,1.758,3.654,3.027
	l0.199,0.196l0.053,0.066c0.417,0.52,0.836,1.036,1.218,1.592c2.688,3.919,4.06,8.713,3.966,13.871
	c-0.02,1.232-0.127,2.461-0.288,3.682l-0.233,1.441l-0.092,0.533l-0.002,0.009l-0.044,0.148c-1.184,3.955-2.246,6.899-3.441,9.547
	c-3.068,6.798-7.29,13.676-13.281,21.651c-3.028,4.031-6.348,8.096-10.151,12.432c-1.239,1.417-2.511,2.807-3.779,4.197
	l-2.701,2.903c-1.122,1.163-2.253,2.318-3.386,3.463c-8.767,8.847-18.561,17.85-29.944,27.525
	c-17.571,14.937-36.793,29.765-59.322,45.726l-0.228-0.876l-0.078-0.3c-0.679-2.585-1.377-5.163-2.095-7.733l-0.152-0.543
	c-0.325-1.158-0.654-2.315-0.987-3.469l-0.091-0.318c-0.747-2.585-1.514-5.162-2.3-7.73l-0.102-0.328
	c-0.369-1.202-0.741-2.401-1.119-3.599l-0.079-0.252c-0.818-2.593-1.657-5.178-2.515-7.753l-0.027-0.08
	c-0.421-1.265-0.848-2.526-1.278-3.785l-0.05-0.144c-1.321-3.859-2.688-7.696-4.098-11.513l-0.068-0.182
	c-13.26-35.841-30.407-69.796-50.931-101.354l1.587,2.311c11.577-2.459,18.443-3.928,29.29-5.912
	c5.037-0.92,10.081-1.807,15.133-2.652c2.76-0.463,5.521-0.912,8.289-1.351l1.642-0.248c10.233-1.5,19.716-2.71,28.987-3.694
	c4.51-0.481,9.024-0.914,13.543-1.291c1.858-0.154,3.717-0.299,5.569-0.433c0.828-0.002,1.74-0.072,2.75-0.166
	c6.469-0.303,14.699-0.61,23.037-0.53C1739.759,655.33,1743.103,655.416,1746.452,655.572z M598.742,1146.11l0.992-1l1.382-1.445
	c1.269-1.306,2.549-2.602,3.84-3.89c3.037-3.032,6.126-6.01,9.259-8.946c12.297-11.526,26.195-23.315,42.488-36.038
	c7.365-5.75,14.421-11.485,22.421-17.342l-0.194-0.918c13.103,51.102,33.879,99.128,61.025,142.781
	c-5.521,1.069-10.971,2.085-16.372,3.048c-4.12,0.732-8.246,1.445-12.378,2.128c-2.27,0.376-4.541,0.746-6.809,1.106l-0.127,0.02
	c-9.152,1.333-16.765,2.345-23.943,3.179c-7.762,0.901-15.311,1.641-22.443,2.199l-4.453,0.329l-0.114,0.005
	c-3.349,0.168-6.699,0.327-10.052,0.428c-6.798,0.208-13.053,0.229-19.135,0.064c-2.005-0.053-4.01-0.149-6.014-0.244l-2.261-0.152
	c-1.153-0.101-2.308-0.2-3.457-0.318c-5.186-0.531-9.864-1.214-14.306-2.089c-2-0.395-3.99-0.836-5.964-1.333l-1.184-0.321
	l-1.365-0.369l-0.158-0.063c-5.147-1.827-11.706-4.497-16.793-8.959l-0.505-0.478l-0.782-0.739l-0.31-0.407
	c-0.564-0.729-1.133-1.447-1.622-2.244c-1.34-2.191-2.286-4.591-2.813-7.136c-0.578-2.808-0.655-5.924-0.228-9.26l0.197-1.296
	l0.079-0.341l0.27-1.218c0.575-1.909,1.276-4.149,2.137-6.285c3.353-8.335,8.627-16.961,16.591-27.153
	c2.022-2.585,4.109-5.119,6.251-7.611c1.062-1.238,2.138-2.464,3.217-3.678l2.281-2.52l1.019-1.166l0.022,0.016l0.318-0.34
	L598.742,1146.11z M638.227,1335.04c-13.596,2.652-27.09,5.114-40.099,7.316c-14.223,2.407-21.658,3.558-34.59,5.359
	c-44.233,6.155-82.822,9.996-127.317,8.771c-33.957-0.944-59.712-5.312-78.735-13.354c-25.346-10.72-28.473-23.852-29.501-28.166
	c-5.009-21.04,9.719-46.25,21.231-63.383c25.905-38.544,61.73-71.383,93.357-98.422c43.985-37.609,95.373-75.423,157.103-115.597
	c24.899-16.203,41.701-27.74,65.159-41.83l-0.05-2.504c1.216,14.148,3.007,28.133,5.348,41.931
	c-9.784,6.41-18.729,12.604-28.317,19.187c-28.897,19.842-66.321,46.702-99.49,78.529c-16.719,16.045-55.873,53.615-54.887,86.689
	c0.34,11.434,5.288,21.301,14.712,29.321c14.947,12.726,37.202,16.298,54.922,17.988c10.329,0.984,20.913,1.481,32.145,1.481
	c18.348,0,38.416-1.328,61.876-4.029c36.399-4.19,72.412-10.514,106.935-17.905c12.592,17.648,26.275,34.466,40.949,50.354
	c-26.155,7.202-51.943,13.883-77.233,20.006C693.497,1323.62,666.179,1329.592,638.227,1335.04z M2025.103,647.117
	c-15.169,23.464-35.22,46.439-65.014,74.489c-79.664,74.993-171.403,134.372-250.636,182.565
	c-7.018,4.268-14.073,8.518-21.168,12.752c-0.043-0.708-0.088-1.417-0.134-2.125l-0.034-0.536l-0.052-0.755
	c-0.064-0.951-0.132-1.901-0.201-2.851l-0.048-0.668l-0.03-0.401c-0.1-1.324-0.204-2.647-0.314-3.969l-0.056-0.648
	c-0.084-0.993-0.17-1.986-0.259-2.978l-0.046-0.509l-0.078-0.839c-0.084-0.905-0.17-1.809-0.259-2.713l-0.067-0.688l-0.049-0.494
	c-0.133-1.325-0.271-2.647-0.414-3.969l-0.049-0.443c-0.115-1.052-0.233-2.103-0.354-3.153l-0.039-0.336l-0.113-0.955
	c-0.105-0.894-0.213-1.787-0.323-2.679l-0.07-0.571l-0.086-0.69c-0.127-1.007-0.257-2.013-0.389-3.018l-0.041-0.316
	c-0.198-1.492-0.402-2.982-0.612-4.47l-0.13-0.902c-0.127-0.881-0.255-1.763-0.385-2.643l-0.07-0.47l-0.129-0.859
	c-0.148-0.979-0.299-1.957-0.453-2.935l-0.023-0.151c-0.248-1.572-0.502-3.141-0.764-4.709l-0.113-0.666
	c-0.099-0.585-0.196-1.17-0.296-1.754c30.536-19.614,58.21-38.912,84.356-58.735c29.505-22.371,50.756-40.827,68.906-59.846
	c15.656-16.409,30.362-32.821,38.263-53.183c7.042-18.144,5.63-33.717-4.084-45.036c-15.585-18.158-41.578-22.464-64.948-24.284
	c-42.955-3.344-85.189,1.753-117.186,6.562c-27.736,4.171-62.47,9.32-97.989,17.298l2.81,4.09
	c-9.987-13.785-20.64-27.056-31.917-39.76c78.977-22.423,138.764-35.123,203.707-46.564
	c63.359-11.164,114.426-16.343,160.091-16.073c79.608,0.345,120.371,16.952,121.161,49.359
	C2045.422,613.248,2034.59,632.444,2025.103,647.117z"/>
<path style="fill:#BF8BBD;" d="M1325.19,896.43c-1.443-18.848-2.8-38.841-10.377-56.393l-0.086-0.204l-0.185-0.379l-0.644-1.307
	c-0.371-0.731-0.758-1.454-1.163-2.166c-0.811-1.428-1.711-2.783-2.641-4.135l-0.764-1.011l-1.351-1.455
	c-0.912-0.919-1.895-1.736-2.906-2.538l-0.824-0.504c-0.514-0.279-1.036-0.545-1.549-0.824l-0.809-0.357l-1.218-0.424
	c-0.637-0.146-1.271-0.3-1.91-0.437l-0.892-0.146c-1.125-0.067-2.248-0.097-3.375-0.033c-0.784,0.045-1.559,0.139-2.339,0.225
	l-0.136,0.011l-0.297,0.076c-1.367,0.333-2.728,0.642-4.072,1.064c-1.518,0.477-2.994,1.052-4.47,1.646l-0.33,0.128l-0.407,0.2
	c-0.774,0.375-1.547,0.751-2.312,1.147c-6.566,3.404-12.622,7.721-18.393,12.324l-0.519,0.412l-0.37,0.308l-0.939,0.786
	c-0.737,0.621-1.47,1.247-2.198,1.878c-1.71,1.482-3.394,2.991-5.058,4.523c-3.268,3.008-6.455,6.101-9.581,9.255
	c-6.894,6.955-13.493,14.199-19.911,21.593c-24.615,28.357-46.394,58.929-69.088,88.798c-11.425,15.037-23.492,29.608-35.184,44.441
	c-15.027,19.063-31.219,39.713-52.492,52.161c-8.966,5.248-19.249,8.895-29.761,8.131c-11.844-0.862-22.296-6.788-30.578-15.117
	c-21.992-22.12-29.13-54.323-30.934-84.455c-1.67-27.895,1.047-56.046,2.639-83.897c1.278-22.37,3.436-45.002,1.824-67.409
	c-0.601-8.342-1.494-15.252-4.75-23.232l-0.087-0.215l-0.073-0.142l-0.602-1.195c-0.365-0.672-0.731-1.341-1.132-1.992
	c-0.447-0.727-0.939-1.413-1.422-2.116l-0.191-0.297l-0.262-0.268c-0.639-0.667-1.278-1.31-1.952-1.941l-1.058-0.881l-1.206-0.777
	c-0.73-0.403-1.476-0.76-2.221-1.135l-0.847-0.345l-0.603-0.189c-0.761-0.208-1.52-0.413-2.293-0.575
	c-2.464-0.515-2.062-0.461-4.192-0.513c-4.408-0.107-8.467,0.377-12.553,1.298c-3.193,0.72-6.344,1.603-9.456,2.616
	c11.608,27.884,11.493,64.702-1.019,101.929c-4.283,12.742-10.016,25.532-17.23,38.027
	c-40.635,70.382-112.817,104.782-161.223,76.835c-18.847-10.882-31.31-29.611-37.106-52.582
	c-3.275-12.979-4.422-27.312-3.387-42.349c-20.864-3.2-37.309-17.253-46.7-36.312c-2.324,16.388-3.891,33.02-4.64,49.864l0.05-0.028
	l0.964,48.1l0.378,18.827c1.219,14.335,3.029,28.501,5.402,42.476l5.19,24.491l3.5,16.515l0.205,0.791
	c0.277,1.077,0.558,2.152,0.842,3.227l0.36,1.35c0.276,1.032,0.556,2.064,0.839,3.094l0.262,0.96
	c0.368,1.328,0.74,2.655,1.118,3.979l0.272,0.945c0.302,1.051,0.607,2.1,0.915,3.148l0.341,1.156
	c0.804,2.707,1.628,5.404,2.475,8.091l0.267,0.842c0.358,1.129,0.72,2.256,1.085,3.383l0.255,0.788
	c0.9,2.757,1.823,5.504,2.769,8.241l0.209,0.602c1.482,4.273,3.019,8.521,4.61,12.743l0.007,0.02
	c4.124,10.942,8.609,21.707,13.443,32.279l0.017,0.01c9.083,19.851,19.392,39.023,30.833,57.418
	c13.056-2.53,26.524-5.369,40.778-8.597l7.762-1.822c5.128-1.221,10.248-2.468,15.364-3.737c0.622-0.155,1.251-0.313,1.877-0.469
	c9.697-2.419,19.711-5.005,29.806-7.701c14.195-3.79,28.869-7.884,43.835-12.226c7.632-2.215,15.339-4.493,23.1-6.831
	c1.17-0.353,3.937-1.239,5.829-1.845l1.007-0.305l0.788-0.261l0.022,0.062l1.065-0.321l2.96-0.904
	c2.087-0.649,4.173-1.303,6.258-1.957c3.473-1.089,6.943-2.183,10.409-3.284c11.96-3.805,24.112-7.764,36.119-11.769
	c9.78-3.26,19.673-6.618,29.634-10.055c8.823-3.045,17.698-6.153,26.596-9.315c6.197-2.202,12.405-4.431,18.613-6.68
	c12.855-4.659,25.831-9.453,38.563-14.249c6.904-2.6,13.802-5.221,20.689-7.867l13.016-5.026l0.055-0.022
	c1.12-0.44,2.239-0.881,3.358-1.321c53.59-21.103,106.354-43.249,156.882-65.85c10.815-4.837,21.62-9.734,32.359-14.667
	c10.113-4.645,20.167-9.319,30.119-14.004C1328.698,971.699,1328.041,933.663,1325.19,896.43z"/>
<path style="fill:#F5B4C8;" d="M1641.936,733.254c-10.422-22.493-22.399-44.118-35.84-64.704l-13.653-19.877
	c-10.143-14.05-20.98-27.564-32.46-40.496l-0.279,0.079l-39.106-39.872c-23.049-20.892-48.004-39.72-74.575-56.189
	c4.593,4.575,9.103,9.242,13.452,14.083c-4.28-4.764-8.721-9.354-13.238-13.859c-1.583-0.983-3.113-2.042-4.708-3.008
	c3.534,3.998,7.013,8.046,10.377,12.202c42.347,52.319,66.521,117.868,68.78,185.179c0.948,28.242-2.176,60.334-17.765,84.689
	c-13.15,20.544-41.405,37.911-64.72,22.135c-19.668-13.308-26.87-39.909-31.626-61.829c-1.206-5.562-2.252-11.157-3.219-16.765
	c-0.51-2.964-0.997-5.932-1.482-8.899c-0.205-1.255-0.409-2.511-0.614-3.766c-0.252-1.551-0.119-0.744-0.251-1.536
	c-2.462-14.765-4.359-29.62-6.878-44.376c-5.184-30.363-12.467-62.548-32.307-87.036c-21.758-26.856-57.968-40.171-92.009-36.7
	c-35.235,3.593-66.451,24.824-90.52,49.685c-21.166,21.863-37.559,47.943-55.719,72.245c-18.114,24.243-37.316,48.067-59.994,68.231
	c-16.999,15.115-36.389,28.739-58.096,35.964c-0.061-22.211,0.689-44.424,1.432-66.619c0.696-20.809,2.033-41.864,0.679-62.672
	c-0.122-1.864-0.273-3.726-0.495-5.58c-0.069-0.58-0.158-1.157-0.228-1.737l-0.095-0.504c-1.204-5.872-2.315-11.742-3.891-17.532
	c-1.447-5.316-3.177-10.559-5.337-15.63l-0.176-0.419l-0.199-0.417l-0.613-1.277c-0.502-1.022-1.026-2.035-1.575-3.033
	c-0.923-1.675-1.914-3.313-2.991-4.893c-0.534-0.782-1.104-1.534-1.676-2.287l-1.296-1.538c-1.075-1.163-2.217-2.266-3.43-3.285
	l-1.182-0.949l-0.035-0.03c-0.573-0.365-1.139-0.738-1.729-1.077c-1.091-0.627-2.233-1.125-3.383-1.618l-1.635-0.562
	c-0.67-0.182-1.347-0.341-2.029-0.476c-0.718-0.143-1.441-0.232-2.163-0.343l-0.985-0.054c-1.617-0.018-3.221,0.005-4.833,0.159
	c-0.624,0.06-1.243,0.149-1.864,0.237l-1.434,0.277c-8.658,1.996-12.741,4.006-19.882,8.055
	c-8.062,4.572-15.633,9.984-22.924,15.691c-4.375,3.424-6.362,5.079-10.761,8.86c-4.147,3.564-8.227,7.206-12.262,10.897
	c-8.303,7.596-16.414,15.401-24.469,23.26c-11.526,11.247-22.91,22.654-34.565,33.772c-16.326-34.543-20.829-73.236-16.659-111.056
	c-40.554,38.5-74.764,83.499-101.046,133.415c-26.824,50.923-45.317,106.906-53.726,166.136
	c9.391,19.055,25.834,33.105,46.695,36.304c1.837-26.699,10.548-55.617,26.422-83.11c40.635-70.382,112.817-104.782,161.223-76.835
	c14.704,8.489,25.522,21.755,32.319,38.084c3.111-1.013,6.263-1.896,9.456-2.616c4.086-0.921,8.145-1.405,12.553-1.298
	c2.13,0.051,1.728-0.002,4.192,0.513c0.773,0.161,1.532,0.367,2.293,0.575l0.603,0.189l0.847,0.345
	c0.745,0.374,1.491,0.731,2.221,1.135l1.206,0.777l1.058,0.881c0.674,0.631,1.313,1.274,1.952,1.941l0.262,0.268l0.191,0.297
	c0.482,0.703,0.974,1.389,1.422,2.116c0.401,0.651,0.767,1.321,1.132,1.992l0.602,1.195l0.073,0.142l0.087,0.215
	c3.256,7.98,4.149,14.89,4.75,23.232c1.612,22.407-0.546,45.038-1.824,67.409c-1.591,27.85-4.309,56.002-2.639,83.897
	c1.804,30.132,8.942,62.335,30.934,84.455c8.281,8.329,18.733,14.255,30.578,15.117c10.512,0.764,20.794-2.883,29.761-8.131
	c21.273-12.448,37.465-33.098,52.492-52.161c11.692-14.833,23.76-29.404,35.184-44.441c22.694-29.869,44.473-60.441,69.088-88.798
	c6.419-7.394,13.018-14.638,19.911-21.593c3.125-3.154,6.313-6.247,9.581-9.255c1.664-1.532,3.349-3.041,5.058-4.523
	c0.728-0.631,1.461-1.257,2.198-1.878l0.939-0.786l0.37-0.308l0.519-0.412c5.771-4.603,11.827-8.92,18.393-12.324
	c0.764-0.396,1.537-0.771,2.312-1.147l0.407-0.2l0.33-0.128c1.475-0.593,2.952-1.169,4.47-1.646
	c1.344-0.422,2.706-0.731,4.072-1.064l0.297-0.076l0.136-0.011c0.78-0.085,1.555-0.18,2.339-0.225
	c1.127-0.064,2.25-0.034,3.375,0.033l0.892,0.146c0.64,0.137,1.273,0.291,1.91,0.437l1.218,0.424l0.809,0.357
	c0.514,0.279,1.036,0.544,1.549,0.824l0.824,0.504c1.011,0.802,1.994,1.619,2.906,2.538l1.351,1.455l0.764,1.011
	c0.93,1.352,1.83,2.707,2.641,4.135c0.405,0.712,0.792,1.435,1.163,2.166l0.644,1.307l0.185,0.379l0.086,0.204
	c7.577,17.552,8.934,37.545,10.377,56.393c2.851,37.233,3.508,75.269,11.666,111.854c4.228-1.99,8.438-3.982,12.624-5.973
	c12.515-5.953,25.029-12.002,37.193-17.975l9.406-4.638l0.183-0.088l3.724-1.857c5.801-2.899,11.596-5.815,17.382-8.751
	c5.075-2.575,10.098-5.141,15.079-7.702c27.396-14.084,53.412-27.98,78.578-41.974c11.831-6.579,23.475-13.178,34.986-19.83
	c19.649-11.354,38.684-22.75,56.575-33.873c8.911-5.54,17.703-11.115,26.135-16.57c2.807-1.816,5.604-3.643,8.397-5.477
	c1.05-6.348,1.99-12.712,2.813-19.087C1643.868,794.035,1644.352,763.599,1641.936,733.254z"/>
<path style="fill:#F190B7;" d="M1543.484,691.082c-11.922-61.426-42.295-118.368-84.01-164.805
	c-4.28-4.764-8.721-9.354-13.238-13.859c-1.583-0.983-3.113-2.042-4.708-3.008c3.534,3.998,7.013,8.046,10.377,12.202
	c42.347,52.319,66.521,117.868,68.78,185.179c0.948,28.242-2.176,60.334-17.765,84.689c-13.15,20.544-41.405,37.911-64.72,22.135
	c-19.668-13.308-26.87-39.909-31.626-61.829c-1.206-5.562-2.252-11.157-3.219-16.765c-0.51-2.964-0.997-5.932-1.482-8.899
	c-0.205-1.255-0.409-2.511-0.614-3.766c-0.252-1.551-0.119-0.744-0.251-1.536c-2.462-14.765-4.359-29.62-6.878-44.376
	c-5.184-30.363-12.467-62.548-32.307-87.036c-21.758-26.856-57.968-40.171-92.009-36.7c-35.235,3.593-66.451,24.824-90.52,49.685
	c-21.166,21.863-37.559,47.943-55.719,72.245c-18.114,24.243-37.316,48.067-59.994,68.231
	c-16.999,15.115-36.389,28.739-58.096,35.964c0.013,4.795,0.063,9.591,0.159,14.385c0.476,23.505,1.456,47.91,7.838,70.679
	c4.254,15.179,13.081,33.274,31.093,34.079c15.774,0.705,29.424-14.193,38.838-24.99c16.386-18.792,30.017-40.074,43.229-61.152
	c15.328-24.453,29.847-49.402,44.627-74.187c6.969-11.686,13.984-23.345,21.217-34.869c5.876-9.36,13.142-20.585,18.746-28.322
	c5.203-7.184,10.606-14.341,16.92-20.598c1.097-1.087,2.232-2.132,3.4-3.142c0.584-0.427,1.17-0.851,1.758-1.272
	c1.115-0.799,2.237-1.589,3.367-2.368c4.179-2.883,8.453-5.632,12.847-8.177c3.758-2.176,7.607-4.193,11.552-6.011l1.61-0.703
	c0.826-0.346,1.656-0.683,2.491-1.007c1.857-0.721,3.735-1.387,5.635-1.983c1.616-0.507,3.246-0.966,4.892-1.364
	c0.829-0.2,1.661-0.387,2.497-0.557l1.464-0.258c2.899-0.399,5.808-0.652,8.74-0.591c0.729,0.016,1.455,0.075,2.183,0.096
	l0.173,0.003l0.202,0.036c1.449,0.226,2.889,0.424,4.321,0.751c1.199,0.275,2.363,0.635,3.542,0.98l0.339,0.098l0.059,0.033
	c0.674,0.299,1.364,0.561,2.035,0.869c1.157,0.531,2.289,1.117,3.392,1.752c0.642,0.37,2.594,1.716,2.739,1.77
	c1.97,1.514,3.861,3.1,5.615,4.871c0.965,0.974,1.865,2,2.783,3.017l0.21,0.23l0.026,0.036c0.547,0.715,1.109,1.417,1.644,2.142
	c1.812,2.455,3.469,5.022,5.004,7.659c1.638,2.815,3.134,5.712,4.52,8.66l0.799,1.763c0.246,0.566,0.494,1.132,0.732,1.701
	c0.703,1.672,1.375,3.357,2.021,5.052c5.74,15.05,9.552,30.805,12.735,46.569c3.732,18.484,6.029,34.034,8.711,53.07
	c2.643,18.76,5.069,37.551,7.869,56.29c4.947,33.108,10.051,67.602,24.308,98.213c9.441,20.268,25.664,37.628,48.077,39.217
	c27.396-14.084,53.412-27.98,78.578-41.974c12.086-15.247,20.692-33.267,26.818-51.662c9.39-28.2,12.986-58.258,13.539-87.879
	C1551.936,750.059,1549.147,720.26,1543.484,691.082z"/>
<path style="fill:#BF8BBD;" d="M1652.351,1006.823c-8.668,4.769-17.393,9.521-26.175,14.256
	c-34.447,18.569-69.77,36.869-105.896,54.866c-14.615,7.28-29.362,14.511-44.236,21.69c-44.564,21.508-90.267,42.549-136.978,63.059
	c-17.122,7.518-34.378,14.966-51.765,22.338c-4.41,1.87-8.828,3.735-13.254,5.596c-36.678,15.415-72.781,30.053-108.415,43.951
	c-26.459,10.32-52.66,20.232-78.648,29.753c-17.588,6.444-35.078,12.707-52.484,18.796c-10.415,3.643-20.799,7.225-31.156,10.745
	c1.728,3.64,3.301,7.327,4.779,10.953c6.446,15.808,10.636,33.192,19.745,47.624c12.75,20.199,32.869,36.779,55.983,43.458
	c21.185,6.122,43.495,3.588,62.21-6.977c18.305-10.335,35.246-22.956,54.562-31.469c17.439-7.685,38.295-11.197,52.963,3.84
	c14.227,14.583,16.764,35.756,25.233,53.492c8.167,17.101,22.447,25.835,38.835,29.283
	c138.652-39.716,253.281-136.293,317.036-262.886l0.085-0.168c0.502-0.998,1.001-1.997,1.496-2.998l0.134-0.27
	c1.539-3.114,3.048-6.246,4.525-9.396l0.104-0.223c0.44-0.939,0.877-1.881,1.312-2.824l0.24-0.521
	c0.392-0.851,0.779-1.703,1.166-2.557l0.108-0.236l0.217-0.48c0.361-0.801,0.719-1.603,1.077-2.406l0.139-0.311l0.231-0.52
	c0.349-0.789,0.696-1.58,1.041-2.371l0.374-0.855c0.461-1.06,0.919-2.123,1.373-3.188l0.035-0.081l0.338-0.799l-0.01-0.003
	c20.181-47.559,33.402-98.785,38.368-152.407l0.009-0.095c0.08-0.86,0.157-1.72,0.233-2.581l0.002-0.021
	c0.154-1.764,0.299-3.531,0.435-5.3l0.033-0.443l0.082-1.119l-1.179,0.668C1675.33,994.095,1663.891,1000.473,1652.351,1006.823z"/>
<path style="fill:#F5E3BA;" d="M2118.111,535.988c-24.982-32.004-67.598-41.702-97.478-46.212
	c-55.519-8.388-111.531-4.376-158.996,0.65c-62.823,6.651-129.986,18.687-211.364,37.877
	c-40.029,9.441-97.761,26.113-133.436,36.246l3.375,3.441l0.1,0.102l0.285,0.291l39.106,39.872l0.279-0.079l0.022-0.006l0.01-0.003
	c78.977-22.423,138.764-35.124,203.707-46.564c63.359-11.164,114.426-16.343,160.091-16.073
	c79.608,0.345,120.371,16.952,121.161,49.359c0.448,18.359-10.383,37.555-19.871,52.228c-15.169,23.464-35.22,46.439-65.014,74.489
	c-79.664,74.993-171.403,134.372-250.636,182.565c-7.018,4.268-14.073,8.518-21.168,12.752l-0.001,0.001
	c-9.175,5.474-18.417,10.919-27.728,16.338c-3.614,2.103-7.238,4.202-10.874,6.297c-16.001,9.223-32.21,18.369-48.646,27.45
	c-71.027,39.241-146.295,77.249-227.301,114.808c-11.316,5.246-22.741,10.484-34.284,15.715
	c-7.894,3.577-15.786,7.124-23.677,10.643c-86.486,38.571-172.773,73.651-258.004,104.907
	c-17.083,6.265-34.122,12.375-51.113,18.329c-32.032,11.226-63.888,21.898-95.522,31.994c-19.868,6.342-39.633,12.425-59.243,18.24
	c-9.169,2.718-18.303,5.376-27.4,7.975c-2.515,0.718-5.026,1.432-7.534,2.141c-6.011,1.699-12.004,3.372-17.978,5.016l0,0
	c-26.155,7.202-51.943,13.883-77.233,20.006c-28.248,6.838-55.567,12.81-83.518,18.258c-13.596,2.652-27.09,5.114-40.099,7.316
	c-14.223,2.407-21.658,3.558-34.59,5.359c-44.233,6.155-82.822,9.996-127.317,8.771c-33.957-0.944-59.712-5.312-78.735-13.354
	c-25.346-10.72-28.473-23.852-29.501-28.166c-5.009-21.04,9.719-46.25,21.231-63.383c25.905-38.545,61.73-71.383,93.357-98.422
	c43.985-37.609,95.373-75.423,157.103-115.597c24.899-16.203,41.701-27.741,65.159-41.831l-0.05-2.503l-0.001-0.037l-0.008-0.436
	l-0.378-18.827l-0.964-48.1l-0.05,0.028l-0.006,0.003l-0.003,0.002l-2.71,1.515c-60.287,35.536-148.791,91.318-216.383,141.297
	c-57.075,42.204-100.149,79.531-135.559,117.471c-95.79,102.64-77.33,160.432-44.975,190.841
	c23.919,22.48,56.921,30.357,83.001,34.707c24.221,4.041,48.478,5.417,71.667,5.417c19.771,0,38.77-1.001,56.302-2.202
	c127.47-8.739,250.062-39.542,353.172-68.524c5.908-1.661,11.821-3.342,17.737-5.041c5.51-1.582,11.024-3.18,16.542-4.795
	c35.464-10.382,71.097-21.456,107.023-33.263c11.353-3.731,22.736-7.535,34.152-11.415c10.357-3.52,20.742-7.101,31.156-10.745
	c17.406-6.089,34.895-12.353,52.484-18.796c25.988-9.521,52.189-19.433,78.648-29.753c35.635-13.898,71.737-28.536,108.415-43.951
	c4.426-1.86,8.844-3.726,13.254-5.596c17.387-7.372,34.643-14.82,51.765-22.338c46.711-20.51,92.414-41.55,136.978-63.059
	c14.874-7.179,29.621-14.41,44.236-21.69c36.126-17.996,71.449-36.297,105.896-54.866c8.783-4.735,17.508-9.487,26.175-14.256
	c11.54-6.349,22.979-12.728,34.31-19.135l1.179-0.668l0.003-0.002c126.45-71.561,218.417-132.934,298.063-198.896
	c39.123-32.403,68.878-61.09,93.637-90.284c17.619-20.776,39.14-48.817,49.254-81.519
	C2138.454,585.091,2134.76,557.311,2118.111,535.988z"/>
<path style="fill:#A568A8;" d="M1359.818,1326.624c20.651,12.385,45.947,9.717,67.44,1.15c26.835-10.697,50.4-29.688,71.224-49.331
	c19.529-18.422,37.469-38.595,53.861-59.848c44.357-57.51,78.643-123.957,96.122-194.623c1.407-5.69,2.703-11.407,3.887-17.149
	c-8.668,4.769-17.393,9.521-26.175,14.256c-3.75,9.98-7.839,19.828-12.319,29.502c-17.407,37.587-41.058,71.066-72.349,98.333
	c-27.843,24.262-62.223,44.492-98.8,51.608c-17.968,3.496-36.935,3.939-54.464-1.98c-16.778-5.664-31.415-16.566-42.924-29.928
	c-2.214-2.57-4.294-5.214-6.253-7.921c-17.122,7.518-34.378,14.966-51.765,22.338c23.716,25.128,29.601,64.787,40.733,96.479
	C1334.379,1297.575,1343.306,1316.722,1359.818,1326.624z"/>
<path style="fill:#F5B4C8;" d="M751.388,1183.198c-14.269-6.715-28.309-13.899-42.229-21.312
	c9.083,19.851,19.392,39.023,30.833,57.418c13.056-2.53,26.524-5.369,40.778-8.597l7.762-1.822
	c5.128-1.221,10.248-2.468,15.364-3.737c0.622-0.155,1.251-0.313,1.877-0.469c-6.073-1.266-12.021-3.276-17.718-5.548
	C775.675,1194.198,763.447,1188.873,751.388,1183.198z"/>
<path style="fill:#F5B4C8;" d="M1648.668,1148.981l-0.223,0.553c-16.675,26.944-34.532,52.655-54.73,77.131
	c-20.398,24.717-42.128,48.396-65.361,70.479c-23.791,22.612-49.3,43.777-77.552,60.621c-23.631,14.089-50.5,26.043-78.512,25.938
	c-26.897-0.1-50.052-14.189-66.002-35.349c-9.358-12.414-16.732-25.744-20.879-40.735c-4.111-14.858-6.572-30.233-11.979-44.715
	c-4.921-13.182-12.608-26.247-26.397-31.481c-14.199-5.389-29.624-1.609-41.926,6.555c-28.511,18.921-45.363,51.307-69.257,75.102
	c-10.771,10.726-22.941,19.417-38.475,20.852c-16.598,1.533-30.026-6.105-40.72-18.308c-8.981-10.249-15.739-22.391-22.154-34.495
	c-10.415,3.643-20.799,7.225-31.156,10.745c1.728,3.64,3.301,7.327,4.779,10.953c6.446,15.808,10.636,33.192,19.745,47.624
	c12.75,20.199,32.869,36.779,55.983,43.458c21.185,6.122,43.495,3.588,62.21-6.977c18.305-10.335,35.246-22.956,54.562-31.469
	c17.439-7.685,38.295-11.197,52.963,3.84c14.227,14.583,16.764,35.756,25.233,53.492c8.167,17.101,22.447,25.835,38.835,29.283
	c138.652-39.716,253.281-136.293,317.036-262.886l0.085-0.168c0.502-0.998,1.001-1.997,1.496-2.998l0.134-0.27
	c1.539-3.114,3.048-6.246,4.525-9.396l0.104-0.223c0.44-0.939,0.877-1.881,1.312-2.824l0.24-0.521
	c0.392-0.851,0.779-1.703,1.166-2.557l0.108-0.236l0.217-0.48c0.361-0.801,0.719-1.603,1.077-2.406l0.139-0.311l0.231-0.52
	c0.349-0.789,0.696-1.58,1.041-2.371l0.374-0.855c0.461-1.06,0.919-2.123,1.373-3.188l0.035-0.081l0.338-0.799L1648.668,1148.981z"
	/>
<path style="fill:#A568A8;" d="M675.368,1059.724c3.634,0.22,7.251,0.808,10.798,1.86c15.133,4.486,26.268,16.116,35.897,28.079
	c16.926,21.031,28.602,46.1,54.758,57.325c35.134,15.079,71.306,2.026,105.64-8.232c16.92-5.055,34.07-9.409,51.854-9.287
	c16.485,0.114,32.697,3.525,47.795,10.149c5.06,2.22,9.883,4.795,14.496,7.667c8.823-3.045,17.698-6.153,26.596-9.315
	c-5.544-0.393-11.075-1.329-16.55-2.893c-38.377-10.963-61.744-47.372-70.332-84.493c-7.931-34.277-5.826-69.44-2.036-104.081
	c1.601-14.635,2.973-29.558,1.296-44.249c-0.378-3.319-0.986-6.673-1.909-9.881c-4.283,12.742-10.016,25.532-17.23,38.027
	c-40.635,70.382-112.817,104.782-161.223,76.835c-18.847-10.882-31.31-29.611-37.106-52.582l-0.74-0.416
	c-5.736-3.176-11.463-5.561-17.891-2.902c-9.216,3.811-15.866,12.347-24.328,17.486c-3.362,2.043-6.983,3.817-10.754,5.108
	l0.378,18.827c1.219,14.335,3.029,28.501,5.402,42.476L675.368,1059.724z"/>
<path style="fill:#F5E3BA;" d="M1274.377,1036.955c-50.529,22.601-103.292,44.747-156.882,65.85
	c-1.119,0.441-2.238,0.882-3.358,1.321l-0.055,0.022l-13.016,5.026c-6.887,2.646-13.785,5.266-20.689,7.867
	c-12.732,4.796-25.707,9.591-38.563,14.249c-6.208,2.25-12.416,4.478-18.613,6.68c-8.898,3.162-17.773,6.27-26.596,9.315
	c-9.961,3.438-19.854,6.796-29.634,10.055c-12.008,4.005-24.16,7.964-36.119,11.769c-3.466,1.101-6.937,2.194-10.409,3.284
	c-2.085,0.654-4.171,1.308-6.258,1.957l-2.96,0.904l-1.065,0.321l-0.022-0.062l-0.788,0.261l-1.007,0.305
	c-1.893,0.606-4.66,1.493-5.829,1.845c-7.761,2.338-15.468,4.616-23.1,6.831c-14.966,4.342-29.64,8.437-43.835,12.226
	c-10.095,2.696-20.109,5.282-29.806,7.701c-0.626,0.156-1.254,0.314-1.877,0.469c-5.116,1.268-10.235,2.516-15.364,3.737
	l-7.762,1.822c-14.254,3.227-27.722,6.067-40.778,8.597l-0.038,0.008c-5.521,1.069-10.971,2.085-16.372,3.048
	c-4.12,0.732-8.246,1.445-12.378,2.128c-2.27,0.376-4.541,0.746-6.809,1.106l-0.127,0.02c-9.152,1.333-16.765,2.345-23.943,3.179
	c-7.762,0.901-15.311,1.641-22.443,2.199l-4.453,0.328l-0.114,0.006c-3.349,0.168-6.698,0.327-10.052,0.428
	c-6.798,0.208-13.053,0.229-19.135,0.064c-2.005-0.053-4.01-0.149-6.014-0.244l-2.261-0.152c-1.153-0.101-2.308-0.2-3.457-0.318
	c-5.186-0.531-9.864-1.214-14.306-2.089c-2-0.395-3.99-0.836-5.964-1.333l-1.184-0.321l-1.365-0.369l-0.158-0.063
	c-5.147-1.827-11.706-4.497-16.793-8.959l-0.505-0.478l-0.782-0.738l-0.31-0.407c-0.564-0.729-1.133-1.447-1.622-2.245
	c-1.34-2.19-2.286-4.59-2.813-7.135c-0.578-2.808-0.655-5.924-0.228-9.26l0.197-1.296l0.079-0.341l0.27-1.218
	c0.575-1.909,1.276-4.149,2.137-6.286c3.353-8.334,8.627-16.961,16.591-27.152c2.022-2.585,4.109-5.119,6.251-7.611
	c1.062-1.238,2.138-2.465,3.218-3.678l2.281-2.52l1.019-1.166l0.022,0.016l0.318-0.34l-0.008-0.006l0.992-1.001l1.382-1.445
	c1.269-1.306,2.549-2.602,3.84-3.89c3.037-3.032,6.126-6.01,9.259-8.946c12.297-11.526,26.195-23.315,42.488-36.038
	c7.365-5.75,14.421-11.485,22.421-17.342l-0.194-0.918l-0.061-0.288l-0.001-0.004l-3.5-16.515l-5.19-24.491l-0.019-0.09
	l-0.019,0.013l-0.002,0l-0.004,0.003c-9.784,6.41-18.729,12.605-28.317,19.188c-28.897,19.842-66.321,46.702-99.49,78.529
	c-16.719,16.045-55.873,53.615-54.887,86.689c0.34,11.434,5.288,21.301,14.712,29.321c14.947,12.725,37.202,16.298,54.922,17.988
	c10.329,0.984,20.913,1.481,32.145,1.481c18.348,0,38.416-1.328,61.876-4.029c36.399-4.19,72.412-10.514,106.935-17.905
	c2.675-0.573,5.341-1.152,7.997-1.736c52.931-11.656,102.1-25.659,143.426-38.092c20.731-6.237,41.495-12.735,62.336-19.508
	c17.304-5.624,34.662-11.436,52.099-17.45c69.122-23.838,139.494-50.812,212.737-81.514c24.206-10.147,48.126-20.466,71.73-30.94
	c12.753-5.659,25.414-11.363,37.977-17.111c68.797-31.477,134.672-64.248,196.809-97.928c29.953-16.235,57.359-31.688,82.77-46.703
	c12.06-7.126,23.672-14.153,34.89-21.118l1.268-0.789c6.71-4.173,13.279-8.326,19.721-12.463l0.007-0.005l0,0l0.005-0.003
	c30.536-19.614,58.21-38.912,84.356-58.735c29.504-22.371,50.755-40.827,68.905-59.846c15.656-16.409,30.362-32.821,38.263-53.183
	c7.042-18.144,5.63-33.717-4.084-45.036c-15.585-18.159-41.578-22.465-64.948-24.284c-42.955-3.344-85.189,1.753-117.186,6.562
	c-27.736,4.171-62.47,9.32-97.989,17.298l2.807,4.086l0.115,0.168l0.399,0.581l13.653,19.877l0.364,0.53l0.131,0.191l1.583,2.304
	c11.577-2.459,18.443-3.929,29.29-5.912c5.037-0.92,10.081-1.807,15.133-2.652c2.76-0.463,5.522-0.912,8.289-1.351l1.642-0.248
	c10.234-1.5,19.716-2.71,28.987-3.695c4.51-0.481,9.023-0.914,13.542-1.29c1.859-0.154,3.717-0.299,5.569-0.433
	c0.828-0.002,1.74-0.072,2.75-0.166c6.469-0.303,14.699-0.61,23.037-0.531c3.346,0.033,6.69,0.12,10.039,0.276l2.505,0.125
	l1.16-0.018l0.157,0.028c0.771,0.139,1.485,0.259,2.047,0.314c6.364,0.626,11.998,1.478,17.226,2.604
	c1.133,0.244,2.253,0.546,3.373,0.846c0.544,0.145,1.089,0.291,1.634,0.43l0.226,0.066l-0.003,0.019l0.341,0.071l0.928,0.219
	l0.483,0.139c1.234,0.424,2.461,0.876,3.671,1.366c3.998,1.619,7.321,3.399,10.16,5.435c1.105,0.795,2.266,1.758,3.654,3.026
	l0.199,0.196l0.053,0.066c0.417,0.52,0.836,1.036,1.218,1.592c2.688,3.919,4.06,8.713,3.966,13.871
	c-0.02,1.232-0.127,2.461-0.288,3.681l-0.233,1.442l-0.092,0.532l-0.002,0.01l-0.043,0.148c-1.185,3.955-2.246,6.899-3.442,9.547
	c-3.068,6.798-7.29,13.676-13.281,21.651c-3.028,4.031-6.348,8.096-10.151,12.432c-1.239,1.417-2.511,2.807-3.779,4.197
	l-2.701,2.903c-1.122,1.163-2.253,2.318-3.386,3.463c-8.767,8.847-18.561,17.85-29.944,27.525
	c-17.571,14.937-36.793,29.765-59.322,45.726l-0.002,0.002l0,0l-0.016,0.011c-7.241,5.13-14.82,10.376-22.8,15.781l-8.019,5.378
	c-1.606,1.064-3.218,2.12-4.829,3.178c-2.793,1.833-5.591,3.661-8.397,5.477c-8.432,5.455-17.224,11.03-26.135,16.57
	c-17.891,11.124-36.925,22.519-56.575,33.873c-11.511,6.652-23.155,13.251-34.986,19.83c-25.166,13.994-51.182,27.889-78.578,41.974
	c-4.98,2.561-10.004,5.127-15.079,7.702c-5.786,2.936-11.581,5.852-17.382,8.751l-3.724,1.857l-0.183,0.088l-9.406,4.638
	c-12.165,5.973-24.679,12.022-37.193,17.975c-4.186,1.992-8.396,3.983-12.624,5.973c-9.952,4.685-20.006,9.36-30.119,14.004
	C1295.997,1027.221,1285.192,1032.118,1274.377,1036.955z"/>
<path style="fill:#FFFFFF;" d="M1280.109,1434.213c0.556-0.148,0.744-0.856,0.337-1.264l-19.566-19.645
	c-9.889-9.929-20.276-20.175-33.516-24.647c-18.736-6.327-39.339,0.181-57.016,9.076c-17.676,8.896-34.491,20.334-53.78,24.658
	c-27.22,6.1-56.297-3.172-78.601-20.024c-22.304-16.853-38.572-40.602-51.552-65.451c-5.933-11.357-12.052-23.736-20.071-33.628
	c-35.926,11.807-71.558,22.881-107.023,33.263c46.016,40.421,99.12,72.635,156.899,91.195
	C1101.147,1455.027,1193.92,1457.134,1280.109,1434.213z"/>
<path style="fill:#FFFEFE;" d="M718.111,954.655c5.796,22.97,18.259,41.7,37.106,52.582c48.406,27.947,120.588-6.453,161.223-76.835
	c7.215-12.495,12.947-25.285,17.23-38.027c12.512-37.227,12.627-74.044,1.019-101.929c-6.798-16.329-17.616-29.595-32.319-38.084
	c-48.406-27.948-120.588,6.453-161.223,76.835c-15.874,27.493-24.585,56.411-26.422,83.11
	C713.69,927.343,714.837,941.676,718.111,954.655z"/>
<path style="fill:#BF8BBD;" d="M1649.965,835.019c7.98-5.405,15.559-10.651,22.8-15.781c-7.754-29.806-18.117-58.56-30.831-86.004
	c2.417,30.351,1.934,60.795-2.004,91.254c-0.824,6.375-1.764,12.739-2.813,19.087c1.611-1.058,3.222-2.114,4.829-3.178
	L1649.965,835.019z"/>
<path style="fill:#BF8BBD;" d="M1660.556,933.261c9.311-5.419,18.553-10.864,27.728-16.338l-0.079-1.261
	c-0.047-0.75-0.096-1.499-0.147-2.248l-0.014-0.225l-0.082-1.156l-0.006-0.082c-0.06-0.848-0.12-1.697-0.185-2.543l-0.02-0.252
	c-0.121-1.59-0.25-3.179-0.386-4.765l-0.02-0.239l-0.01-0.121l-0.011-0.129l-0.034-0.379l-0.006-0.074
	c-0.135-1.542-0.276-3.083-0.424-4.621l-0.005-0.052c-0.11-1.133-0.223-2.264-0.34-3.394l-0.02-0.197
	c-1.192-11.489-2.764-22.864-4.703-34.116c-6.442,4.138-13.012,8.29-19.721,12.463l-1.268,0.789
	c-11.218,6.964-22.83,13.992-34.89,21.118c-5.19,19.349-11.463,38.402-18.825,57.002c-1.926,4.866-3.941,9.727-6.05,14.567
	c16.436-9.081,32.645-18.227,48.646-27.45C1653.317,937.463,1656.942,935.364,1660.556,933.261z"/>
<path style="fill:#BF8BBD;" d="M1057.769,1213.081c85.231-31.256,171.519-66.336,258.004-104.907
	c7.891-3.519,15.783-7.066,23.677-10.643c11.543-5.231,22.968-10.469,34.284-15.715c-1.223-1.092-2.42-2.233-3.589-3.427
	c-10.656-10.866-18.245-24.21-23.813-38.319c-12.563,5.748-25.224,11.452-37.977,17.111c-23.604,10.474-47.524,20.793-71.73,30.94
	c-73.244,30.702-143.615,57.677-212.737,81.514c-17.437,6.014-34.795,11.826-52.099,17.45
	c-20.841,6.773-41.604,13.271-62.336,19.508c-41.326,12.433-90.495,26.436-143.426,38.092
	c21.286,14.306,44.749,28.292,69.668,34.373c5.297,1.292,10.729,2.177,16.195,2.585c19.611-5.814,39.375-11.898,59.243-18.24
	c31.634-10.097,63.49-20.769,95.522-31.994C1023.647,1225.455,1040.686,1219.345,1057.769,1213.081z"/>
<path style="fill:#F5B4C8;" d="M1346.333,1040.07c5.567,14.109,13.157,27.453,23.813,38.319c1.17,1.193,2.367,2.334,3.589,3.427
	c81.006-37.559,156.274-75.567,227.301-114.808c2.109-4.84,4.124-9.701,6.05-14.567c7.362-18.6,13.636-37.653,18.825-57.002
	c-25.411,15.015-52.817,30.468-82.77,46.703C1481.005,975.822,1415.129,1008.594,1346.333,1040.07z"/>
<path style="fill:#A568A8;" d="M1662.07,873.532l-1.268,0.789c-2.273,18.965-5.418,37.825-9.258,56.456
	c-0.604,2.928-1.225,5.856-1.862,8.781c3.635-2.095,7.26-4.194,10.874-6.297c0.151-6.264,0.238-12.536,0.346-18.825
	C1661.134,900.859,1661.716,887.199,1662.07,873.532z"/>
<path style="fill:#A568A8;" d="M1306.737,1022.289c-0.507-15.447-0.949-30.901-2.178-46.307c-1.1-13.792-2.408-28.313-6.975-41.469
	c-0.406-1.171-0.848-2.337-1.347-3.474l-1.03-1.984c-0.484-0.867-1.024-1.691-1.557-2.527l-0.812-1.114l-0.114-0.114
	c-0.646-0.665-1.337-1.269-2.005-1.909l-0.278-0.281l-0.371-0.161l-1.301-0.648l-1.413-0.486l-1.313-0.24
	c-0.658-0.006-1.315,0.023-1.972,0.022l-1.31,0.121l-0.008,0.001c-0.702,0.149-1.4,0.311-2.091,0.504
	c-1.047,0.293-2.059,0.667-3.081,1.032l-1.206,0.49l-0.127,0.059c-1.828,0.881-3.604,1.864-5.334,2.924
	c-8.979,5.5-15.32,11.483-22.981,19.298c-16.553,16.886-31.781,36.903-44.94,55.503c-10.284,14.538-19.611,29.74-29.969,44.216
	c-15.358,21.464-34.277,41.042-55.528,57.059c53.59-21.103,106.354-43.249,156.882-65.85
	C1285.192,1032.118,1295.997,1027.221,1306.737,1022.289z"/>
<path style="fill:#A568A8;" d="M1105.569,1283.232c4.174,1.788,8.717,1.759,12.991,0.396c0.85-0.271,1.687-0.583,2.513-0.919
	l0.36-0.139l0.606-0.334c1.578-0.834,3.114-1.724,4.598-2.718c3.715-2.487,4.733-3.441,7.976-6.594
	c3.213-3.124,6.201-6.474,9.057-9.924c7.986-9.646,14.995-19.986,21.961-30.42c-26.459,10.32-52.66,20.232-78.648,29.753
	C1091.494,1270.734,1097.052,1279.583,1105.569,1283.232z"/>
<path style="fill:#A568A8;" d="M1308.356,1057.182c-23.604,10.474-47.524,20.793-71.73,30.94
	c-73.244,30.702-143.615,57.677-212.737,81.514c12.736,13.079,23.67,28.152,33.681,43.144l0.2,0.301
	c85.231-31.256,171.519-66.336,258.004-104.907c-2.573-10.39-4.357-21.028-5.623-31.678
	C1309.387,1070.068,1308.811,1063.629,1308.356,1057.182z"/>
<path style="fill:#FFFFFF;" d="M853.154,636.385c9.537,4.465,20.511-1.708,28.775-8.236c16.019-12.653,30.508-27.854,46.169-41.342
	c11.201-9.647,23.001-18.418,36.387-24.755c11.566-5.475,27.786-9.915,40.027-3.656c12.011,6.142,19.031,21.89,22.383,34.154
	c7.052,25.803,7.009,53.053,6.29,79.559c-0.291,10.707,1.266,24.305,11.493,27.486c8.687,2.703,17.106-4.484,23.104-11.325
	c20.815-23.741,36.279-51.674,55.223-77.07c13.17-17.656,27.052-34.781,41.602-51.318c13.639-15.502,30.436-27.641,43.518-43.363
	c18.922-22.746,15.697-50.219-13.086-61.811c-39.571-15.935-88.552-6.341-128.603,4.339
	c-58.373,15.567-118.968,38.285-167.162,75.438c-22.973,17.71-43.856,39.733-53.496,67.091c-2.167,6.151-3.755,12.691-2.94,19.161
	C843.649,627.209,847.247,633.621,853.154,636.385z"/>
<path style="fill:#FFFFFF;" d="M1268.944,521.651c8.412,2.657,17.753,3.817,26.434,5.211c46.022,7.392,91.223,32.601,112.665,73.989
	c20.943,40.426,16.818,89.691,34.449,131.668c4.413,10.504,11.684,21.554,22.957,23.208c12.968,1.902,24.09-9.768,29.319-21.786
	c7.528-17.302,8.072-36.86,6.236-55.64c-4.914-50.273-26.393-98.653-59.704-136.625c-33.309-37.972-78.208-65.464-126.937-78.765
	c-15.272-4.168-33.575-6.412-48.864,0.047c-18.065,7.633-29.548,27.905-16.73,45.464
	C1253.721,515.207,1260.908,519.112,1268.944,521.651z"/>
<path style="fill:#FFFFFF;" d="M807.35,1280.777c3.15,3.7,6.355,7.361,9.607,10.984c2.508-0.709,5.02-1.422,7.534-2.141
	c-5.696-2.724-11.108-6.037-16.104-9.906C807.675,1279.163,806.765,1280.09,807.35,1280.777z"/>
<path style="fill:#FFFEFE;" d="M907.455,742.988c20.435,11.798,50.907-2.724,68.062-32.436c17.154-29.712,14.495-63.364-5.94-75.162
	c-20.435-11.798-50.907,2.724-68.062,32.437C884.36,697.539,887.02,731.19,907.455,742.988z"/>
<path style="fill:#F190B7;" d="M822.801,576.451c-40.554,38.5-74.485,83.239-101.058,133.438
	c3.587,8.492,9.247,16.101,17.563,21.489c14.425,9.347,29.213,8.266,43.981,0.856c15.994-8.025,29.879-20.498,43.016-32.447
	c4.439-4.037,8.817-8.139,13.158-12.28C823.134,652.965,818.631,614.272,822.801,576.451z"/>
</svg>
