<svg width="1816" height="747" viewBox="0 0 1816 747" fill="none" xmlns="http://www.w3.org/2000/svg">
<path d="M679.465 436.065C666.473 436.065 654.653 433.702 644.007 428.976C633.541 424.251 625.24 417.398 619.105 408.42C612.969 399.441 609.902 388.572 609.902 375.813V372.505C609.902 359.746 612.969 348.877 619.105 339.898C625.24 330.919 633.541 324.067 644.007 319.341C654.653 314.616 666.473 312.253 679.465 312.253C692.277 312.253 703.285 314.222 712.487 318.16C721.69 322.098 729.089 327.533 734.683 334.463C738.756 339.241 741.841 344.489 743.939 350.208C745.397 354.182 742.63 358.256 738.468 359.03L720.695 362.336C716.502 363.116 712.593 360.204 710.965 356.262C710.203 354.418 709.267 352.665 708.157 351.003C705.63 347.223 702.021 344.23 697.33 342.024C692.818 339.819 687.134 338.717 680.277 338.717C673.42 338.717 667.195 340.055 661.601 342.733C656.187 345.254 651.856 349.113 648.608 354.311C645.541 359.352 644.007 365.574 644.007 372.977V375.34C644.007 382.744 645.541 389.045 648.608 394.243C651.856 399.284 656.187 403.143 661.601 405.821C667.195 408.341 673.42 409.601 680.277 409.601C690.563 409.601 698.322 407.317 703.555 402.749C707.098 399.656 709.79 395.957 711.633 391.65C713.292 387.773 717.223 385.021 721.352 385.878L738.94 389.527C743.224 390.416 745.897 394.776 744.161 398.792C741.812 404.227 738.652 409.326 734.683 414.091C729.089 420.864 721.69 426.22 712.487 430.158C703.285 434.096 692.277 436.065 679.465 436.065Z" fill="white"/>
<path d="M824.716 436.065C811.362 436.065 799.362 433.702 788.716 428.976C778.069 424.251 769.678 417.398 763.543 408.42C757.408 399.441 754.34 388.651 754.34 376.049V372.269C754.34 359.667 757.408 348.877 763.543 339.898C769.678 330.919 778.069 324.067 788.716 319.341C799.362 314.616 811.362 312.253 824.716 312.253C838.069 312.253 850.069 314.616 860.715 319.341C871.362 324.067 879.753 330.919 885.888 339.898C892.023 348.877 895.091 359.667 895.091 372.269V376.049C895.091 388.651 892.023 399.441 885.888 408.42C879.753 417.398 871.362 424.251 860.715 428.976C850.069 433.702 838.069 436.065 824.716 436.065ZM824.716 409.601C835.182 409.601 843.843 406.687 850.7 400.859C857.557 394.873 860.986 386.367 860.986 375.34V372.977C860.986 361.951 857.557 353.524 850.7 347.695C844.024 341.709 835.362 338.717 824.716 338.717C814.25 338.717 805.588 341.709 798.731 347.695C791.874 353.524 788.445 361.951 788.445 372.977V375.34C788.445 386.367 791.874 394.873 798.731 400.859C805.588 406.687 814.25 409.601 824.716 409.601Z" fill="white"/>
<path d="M941.878 432.757C938.707 432.757 935.874 430.775 934.786 427.795L897.53 325.698C895.732 320.773 899.379 315.561 904.622 315.561H924.622C927.89 315.561 930.786 317.663 931.799 320.77L961.228 411.019H966.1L995.529 320.77C996.542 317.663 999.439 315.561 1002.71 315.561H1022.71C1027.95 315.561 1031.6 320.773 1029.8 325.698L992.542 427.795C991.455 430.775 988.622 432.757 985.45 432.757H941.878Z" fill="white"/>
<path d="M1099.78 436.065C1086.43 436.065 1074.61 433.623 1064.33 428.74C1054.22 423.699 1046.28 416.69 1040.51 407.711C1034.91 398.575 1032.12 387.863 1032.12 375.577V372.741C1032.12 360.454 1034.91 349.822 1040.51 340.843C1046.1 331.707 1053.95 324.697 1064.05 319.814C1074.16 314.773 1085.89 312.253 1099.24 312.253C1112.42 312.253 1123.87 314.852 1133.62 320.05C1143.36 325.091 1150.94 332.179 1156.35 341.316C1161.77 350.294 1164.47 360.77 1164.47 372.741V375.352C1164.47 379.521 1161.09 382.901 1156.93 382.901H1066.76C1067.12 390.935 1070.55 397.472 1077.05 402.513C1083.54 407.553 1091.48 410.074 1100.87 410.074C1110.43 410.074 1117.47 408.262 1121.98 404.639C1124.4 402.698 1126.5 400.644 1128.3 398.477C1130.85 395.401 1135.1 393.886 1138.73 395.549L1152.37 401.792C1156.5 403.681 1158.01 408.756 1155.1 412.237C1153.34 414.344 1151.32 416.537 1149.05 418.816C1144.35 423.542 1138.04 427.637 1130.1 431.103C1122.16 434.411 1112.05 436.065 1099.78 436.065ZM1067.03 360.691H1129.83C1129.11 353.917 1125.95 348.483 1120.36 344.387C1114.94 340.292 1107.81 338.244 1098.97 338.244C1089.77 338.244 1082.46 340.292 1077.05 344.387C1071.63 348.483 1068.3 353.917 1067.03 360.691Z" fill="white"/>
<path d="M1188.22 432.757C1184.05 432.757 1180.67 429.377 1180.67 425.207V323.11C1180.67 318.941 1184.05 315.561 1188.22 315.561H1206.68C1210.85 315.561 1214.23 318.941 1214.23 323.11V328.793H1219.11C1221.09 324.067 1224.34 320.602 1228.85 318.396C1233.54 316.191 1238.96 315.088 1245.09 315.088H1253.78C1257.95 315.088 1261.33 318.468 1261.33 322.638V334.002C1261.33 338.172 1257.95 341.552 1253.78 341.552H1244.55C1235.89 341.552 1228.76 343.6 1223.17 347.695C1217.57 351.633 1214.78 357.777 1214.78 366.125V425.207C1214.78 429.377 1211.4 432.757 1207.23 432.757H1188.22Z" fill="white"/>
<path d="M1332.95 436.065C1319.6 436.065 1307.6 433.702 1296.95 428.976C1286.3 424.251 1277.91 417.398 1271.78 408.42C1265.64 399.441 1262.57 388.651 1262.57 376.049V372.269C1262.57 359.667 1265.64 348.877 1271.78 339.898C1277.91 330.919 1286.3 324.067 1296.95 319.341C1307.6 314.616 1319.6 312.253 1332.95 312.253C1346.3 312.253 1358.3 314.616 1368.95 319.341C1379.6 324.067 1387.99 330.919 1394.12 339.898C1400.26 348.877 1403.33 359.667 1403.33 372.269V376.049C1403.33 388.651 1400.26 399.441 1394.12 408.42C1387.99 417.398 1379.6 424.251 1368.95 428.976C1358.3 433.702 1346.3 436.065 1332.95 436.065ZM1332.95 409.601C1343.42 409.601 1352.08 406.687 1358.94 400.859C1365.79 394.873 1369.22 386.367 1369.22 375.34V372.977C1369.22 361.951 1365.79 353.524 1358.94 347.695C1352.26 341.709 1343.6 338.717 1332.95 338.717C1322.48 338.717 1313.82 341.709 1306.97 347.695C1300.11 353.524 1296.68 361.951 1296.68 372.977V375.34C1296.68 386.367 1300.11 394.873 1306.97 400.859C1313.82 406.687 1322.48 409.601 1332.95 409.601Z" fill="white"/>
<path d="M1423.67 432.757C1419.5 432.757 1416.12 429.377 1416.12 425.207V323.11C1416.12 318.941 1419.5 315.561 1423.67 315.561H1442.13C1446.3 315.561 1449.68 318.941 1449.68 323.11V330.919H1454.55C1456.72 326.824 1460.78 322.964 1466.73 319.341C1472.69 315.561 1481.71 313.671 1493.8 313.671C1504.27 313.671 1513.38 315.797 1521.14 320.05C1529.08 324.146 1535.21 329.895 1539.54 337.299C1543.87 344.545 1546.04 353.051 1546.04 362.817V425.207C1546.04 429.377 1542.66 432.757 1538.49 432.757H1519.48C1515.32 432.757 1511.94 429.377 1511.94 425.207V365.18C1511.94 356.359 1509.41 349.743 1504.36 345.332C1499.48 340.922 1492.45 338.717 1483.24 338.717C1472.78 338.717 1464.66 341.788 1458.88 347.932C1453.11 353.917 1450.22 362.345 1450.22 373.214V425.207C1450.22 429.377 1446.84 432.757 1442.67 432.757H1423.67Z" fill="white"/>
<path d="M528.553 366.525C532.62 370.593 532.62 377.187 528.553 381.255L509.775 400.033C505.708 404.1 499.113 404.1 495.045 400.033L476.211 381.198C472.143 377.131 472.143 370.536 476.211 366.469L494.988 347.691C499.056 343.623 505.651 343.623 509.718 347.691L528.553 366.525Z" fill="white"/>
<path d="M397.407 265.626L406.758 256.274C410.825 252.207 417.42 252.207 421.488 256.274L473.925 308.712C477.993 312.779 477.992 319.374 473.925 323.442L455.147 342.22C451.08 346.287 444.485 346.287 440.417 342.22L390.121 291.781L308.517 373.384L390.417 455.284L440.644 405.055C444.712 400.987 451.307 400.987 455.374 405.054L474.209 423.889C478.276 427.956 478.276 434.551 474.209 438.619L464.808 448.02C464.798 448.029 464.793 448.042 464.793 448.056C464.793 448.069 464.787 448.082 464.778 448.092L422.086 490.783C418.019 494.85 411.424 494.85 407.357 490.783L397.94 481.366C393.872 477.298 387.277 477.298 383.21 481.366L373.782 490.794C369.715 494.861 363.12 494.861 359.052 490.794L273.01 404.752C268.943 400.684 268.943 394.089 273.01 390.022L282.437 380.595C286.505 376.527 286.505 369.933 282.437 365.865L273.018 356.446C268.95 352.378 268.95 345.783 273.018 341.716L358.527 256.206C362.595 252.138 369.189 252.138 373.257 256.206L382.677 265.626C386.744 269.693 393.339 269.693 397.407 265.626Z" fill="white"/>
</svg>
